<mxfile host="app.diagrams.net" modified="2022-03-16T18:56:23.067Z" agent="5.0 (Windows NT 10.0; Win64; x64) AppleWebKit/537.36 (KHTML, like Gecko) Chrome/99.0.4844.51 Safari/537.36" etag="GGEdm75ChEDM7VGCQxfW" version="17.1.3" type="github">
  <diagram id="C5RBs43oDa-KdzZeNtuy" name="Page-1">
    <mxGraphModel dx="2247" dy="834" grid="1" gridSize="10" guides="1" tooltips="1" connect="1" arrows="1" fold="1" page="1" pageScale="1" pageWidth="827" pageHeight="1169" math="0" shadow="0">
      <root>
        <mxCell id="WIyWlLk6GJQsqaUBKTNV-0" />
        <mxCell id="WIyWlLk6GJQsqaUBKTNV-1" parent="WIyWlLk6GJQsqaUBKTNV-0" />
        <mxCell id="WIyWlLk6GJQsqaUBKTNV-2" value="" style="rounded=0;html=1;jettySize=auto;orthogonalLoop=1;fontSize=11;endArrow=block;endFill=0;endSize=8;strokeWidth=1;shadow=0;labelBackgroundColor=none;edgeStyle=orthogonalEdgeStyle;" parent="WIyWlLk6GJQsqaUBKTNV-1" source="WIyWlLk6GJQsqaUBKTNV-3" target="WIyWlLk6GJQsqaUBKTNV-6" edge="1">
          <mxGeometry relative="1" as="geometry" />
        </mxCell>
        <mxCell id="WIyWlLk6GJQsqaUBKTNV-3" value="Lamp doesn&#39;t work" style="rounded=1;whiteSpace=wrap;html=1;fontSize=12;glass=0;strokeWidth=1;shadow=0;" parent="WIyWlLk6GJQsqaUBKTNV-1" vertex="1">
          <mxGeometry x="860" y="60" width="120" height="40" as="geometry" />
        </mxCell>
        <mxCell id="WIyWlLk6GJQsqaUBKTNV-4" value="Yes" style="rounded=0;html=1;jettySize=auto;orthogonalLoop=1;fontSize=11;endArrow=block;endFill=0;endSize=8;strokeWidth=1;shadow=0;labelBackgroundColor=none;edgeStyle=orthogonalEdgeStyle;" parent="WIyWlLk6GJQsqaUBKTNV-1" source="WIyWlLk6GJQsqaUBKTNV-6" edge="1">
          <mxGeometry y="20" relative="1" as="geometry">
            <mxPoint as="offset" />
            <mxPoint x="920" y="270" as="targetPoint" />
          </mxGeometry>
        </mxCell>
        <mxCell id="WIyWlLk6GJQsqaUBKTNV-5" value="No" style="edgeStyle=orthogonalEdgeStyle;rounded=0;html=1;jettySize=auto;orthogonalLoop=1;fontSize=11;endArrow=block;endFill=0;endSize=8;strokeWidth=1;shadow=0;labelBackgroundColor=none;" parent="WIyWlLk6GJQsqaUBKTNV-1" source="WIyWlLk6GJQsqaUBKTNV-6" target="WIyWlLk6GJQsqaUBKTNV-7" edge="1">
          <mxGeometry y="10" relative="1" as="geometry">
            <mxPoint as="offset" />
          </mxGeometry>
        </mxCell>
        <mxCell id="WIyWlLk6GJQsqaUBKTNV-6" value="Lamp&lt;br&gt;plugged in?" style="rhombus;whiteSpace=wrap;html=1;shadow=0;fontFamily=Helvetica;fontSize=12;align=center;strokeWidth=1;spacing=6;spacingTop=-4;" parent="WIyWlLk6GJQsqaUBKTNV-1" vertex="1">
          <mxGeometry x="870" y="150" width="100" height="80" as="geometry" />
        </mxCell>
        <mxCell id="WIyWlLk6GJQsqaUBKTNV-7" value="Plug in lamp" style="rounded=1;whiteSpace=wrap;html=1;fontSize=12;glass=0;strokeWidth=1;shadow=0;" parent="WIyWlLk6GJQsqaUBKTNV-1" vertex="1">
          <mxGeometry x="1020" y="170" width="120" height="40" as="geometry" />
        </mxCell>
        <mxCell id="WIyWlLk6GJQsqaUBKTNV-8" value="No" style="rounded=0;html=1;jettySize=auto;orthogonalLoop=1;fontSize=11;endArrow=block;endFill=0;endSize=8;strokeWidth=1;shadow=0;labelBackgroundColor=none;edgeStyle=orthogonalEdgeStyle;" parent="WIyWlLk6GJQsqaUBKTNV-1" source="WIyWlLk6GJQsqaUBKTNV-10" target="WIyWlLk6GJQsqaUBKTNV-11" edge="1">
          <mxGeometry x="0.3333" y="20" relative="1" as="geometry">
            <mxPoint as="offset" />
          </mxGeometry>
        </mxCell>
        <mxCell id="WIyWlLk6GJQsqaUBKTNV-9" value="Yes" style="edgeStyle=orthogonalEdgeStyle;rounded=0;html=1;jettySize=auto;orthogonalLoop=1;fontSize=11;endArrow=block;endFill=0;endSize=8;strokeWidth=1;shadow=0;labelBackgroundColor=none;" parent="WIyWlLk6GJQsqaUBKTNV-1" target="WIyWlLk6GJQsqaUBKTNV-12" edge="1">
          <mxGeometry y="10" relative="1" as="geometry">
            <mxPoint as="offset" />
            <mxPoint x="970" y="310" as="sourcePoint" />
          </mxGeometry>
        </mxCell>
        <mxCell id="WIyWlLk6GJQsqaUBKTNV-10" value="Bulb&lt;br&gt;burned out?" style="rhombus;whiteSpace=wrap;html=1;shadow=0;fontFamily=Helvetica;fontSize=12;align=center;strokeWidth=1;spacing=6;spacingTop=-4;" parent="WIyWlLk6GJQsqaUBKTNV-1" vertex="1">
          <mxGeometry x="870" y="270" width="100" height="80" as="geometry" />
        </mxCell>
        <mxCell id="WIyWlLk6GJQsqaUBKTNV-11" value="Repair Lamp" style="rounded=1;whiteSpace=wrap;html=1;fontSize=12;glass=0;strokeWidth=1;shadow=0;" parent="WIyWlLk6GJQsqaUBKTNV-1" vertex="1">
          <mxGeometry x="860" y="410" width="120" height="40" as="geometry" />
        </mxCell>
        <mxCell id="WIyWlLk6GJQsqaUBKTNV-12" value="Replace Bulb" style="rounded=1;whiteSpace=wrap;html=1;fontSize=12;glass=0;strokeWidth=1;shadow=0;" parent="WIyWlLk6GJQsqaUBKTNV-1" vertex="1">
          <mxGeometry x="1020" y="290" width="120" height="40" as="geometry" />
        </mxCell>
        <mxCell id="DXC7QlRvag4ilJ8c1-ox-0" value="Bean Definition" style="swimlane;fontStyle=0;childLayout=stackLayout;horizontal=1;startSize=30;horizontalStack=0;resizeParent=1;resizeParentMax=0;resizeLast=0;collapsible=1;marginBottom=0;" vertex="1" parent="WIyWlLk6GJQsqaUBKTNV-1">
          <mxGeometry x="200" y="40" width="140" height="120" as="geometry" />
        </mxCell>
        <mxCell id="DXC7QlRvag4ilJ8c1-ox-1" value="Item 1" style="text;strokeColor=none;fillColor=none;align=left;verticalAlign=middle;spacingLeft=4;spacingRight=4;overflow=hidden;points=[[0,0.5],[1,0.5]];portConstraint=eastwest;rotatable=0;" vertex="1" parent="DXC7QlRvag4ilJ8c1-ox-0">
          <mxGeometry y="30" width="140" height="30" as="geometry" />
        </mxCell>
        <mxCell id="DXC7QlRvag4ilJ8c1-ox-2" value="Item 2" style="text;strokeColor=none;fillColor=none;align=left;verticalAlign=middle;spacingLeft=4;spacingRight=4;overflow=hidden;points=[[0,0.5],[1,0.5]];portConstraint=eastwest;rotatable=0;" vertex="1" parent="DXC7QlRvag4ilJ8c1-ox-0">
          <mxGeometry y="60" width="140" height="30" as="geometry" />
        </mxCell>
        <mxCell id="DXC7QlRvag4ilJ8c1-ox-3" value="Item 3" style="text;strokeColor=none;fillColor=none;align=left;verticalAlign=middle;spacingLeft=4;spacingRight=4;overflow=hidden;points=[[0,0.5],[1,0.5]];portConstraint=eastwest;rotatable=0;" vertex="1" parent="DXC7QlRvag4ilJ8c1-ox-0">
          <mxGeometry y="90" width="140" height="30" as="geometry" />
        </mxCell>
        <mxCell id="DXC7QlRvag4ilJ8c1-ox-4" value="" style="shape=image;verticalLabelPosition=bottom;labelBackgroundColor=default;verticalAlign=top;aspect=fixed;imageAspect=0;image=https://indiedevart.files.wordpress.com/2016/06/l9.png;" vertex="1" parent="WIyWlLk6GJQsqaUBKTNV-1">
          <mxGeometry x="770" y="170" width="1175" height="431.37" as="geometry" />
        </mxCell>
        <mxCell id="DXC7QlRvag4ilJ8c1-ox-5" value="" style="shape=image;verticalLabelPosition=bottom;labelBackgroundColor=default;verticalAlign=top;aspect=fixed;imageAspect=0;image=data:image/png,iVBORw0KGgoAAAANSUhEUgAAArwAAAFRCAMAAAChVo6wAAAABGdBTUEAALGPC/xhBQAAAAFzUkdCAK7OHOkAAAAJdnBBZwAABvkAAAneAFT1E/wAAACBUExURf///xAQEM3Nzd3d3URERO/v75mZmQAAAHZ2dru7uzIyMqurq2ZmZiIiIomJiVRUVFxcXN/f3woKCigoKKWlpQICAg4ODqOjoyAgIAQEBDY2NgwMDDAwMEBAQDo6OlhYWHx8fIuLixoaGnBwcAYGBmRkZEhISAgICJeXlx4eHhgYGBiwWmMAACAASURBVHgB7X2Jkuwsj2XlvlVmff13TO/d0zH7zPs/4BxtgGzwlt6yrh1RlTYIEPIxFgLJX1+rPC6X63a8K4HLZZX39tcztcl9hFu8CXEEIQ6oYpP7AKFVi2xCrEpknutN7iPIeRPiCEIcUMUm9wFCqxbZhFiVyDzXm9xHkPMmxBGEOKCKTe4DhFYtsgmxKpF5rje5jyDnTYgjCHFAFZvcBwitWmQTYlUi81wvLvfT7Xbbz9PXyVpZXIiT9WzdFS8s98PPhY7d9dRFTMfLrQvZ7DQLC3H2/q6lwWXlvt9ddt/X6/FyuTN6j8dGuWzgbRTPH5e5LHifl28G7eF++SbRt3DzB4L3epz/+I+//7vPeA5a4DJtJ/aXi6oLt8tuA29G2DfWqmb/97fPQO+i4MWtsRt2uRy+9ri+iVb7wEavh+XRBc/pdOQ9KJHlL/4buzE2K7dLsyI1dntcH56V8dCbPn7hjnZm+/vSVGY6uXdgEB1LDQ1QfXGg3P7OZ3fO1AtSKwS8UJTPHSqfkWQ6IS4E3vvlH8Yae6+XXVB8Dr3vyRNjWvmYTu7lNmMO5msypnKSjbyn5+V+vp3vlyeUitPucnzcXrvLVcG7Puy2qeqxv73PFgLvaTz0HunGDT1Ook2Wii8LXgDxcnl+n+3xEm6ujNovYPj19XWVFycrxTTyrhC7vw+8X4Tefyxhplf6rvHF31LV4/LTRLEseL9OL9EV7qIICDd3VQvOl/vX1041i5/jgdSGNWL3F4KX0PtfxkBvnJMrCg+vZDpDFy+ds7uMrz2obhi5eNg+nUFmA1yC5oXBC05OjyupuImpzGwQJzB3SBk8XqA+ODU56cmCpymP47KxkNpAt2Uc9J4vz1QipyvPZsSsf/rmix1NbVzG10mGtLNMcq70fr5kJjrTyT3lue2cFtpo7GVuIl5x6e4eurQ70nC8smM6Ibruz9Vr6c446L3KqGSsf1+e59sNCIZCiAZw8bjzDU0zKAfznPMOoEXBb0yMbjcgpLa8Op3cjd+G3/M1vAuOrN0wN03g3e0xgUPH13VMJ8QFwTvO2AuAqrGBFIDDZcdKAl6hX18/Ov6SldRlQD3k9zBUDgxU5wsPzSCv6b/Tyb0Dvo5RmZd5mXCTqg17m2/ubyd0ClY/dCZAvkMbc5BMJ8QlwTsKevmFz/8IvCfdg8Uzb7uPR8xm0gy8bcnMhIPXXZ864j7qJu/p5M7NN//7jg/TNz9swk12wnZHH0QFOtZ70dzM5LnTCdGDVzRBQGH302S7T/vrK+AckaIS6ZQoLRLnn+9rDrzshH2DOHRehpYOLxKY3HHXsGRgjNV36xG65OPylPKv6m0/QPtwxee9QNeUzYdoNMLNKzWVfVdMZej7W9aXKXo4nRA99o7yDuYlnI7rNL4C7nx38L4/9lYRd/5W69LXl42ockOSDDw8+mq9Y3Iuk7owdsfbxxnxcv4zPIJP2ESu0MbZJnK5PKCVkyb/ur2wVAGOoONixQITThCo2LFoEx/j+ZmutzgfeFlKeH6B32660zDwyliH/4/dexazH7dEgRt7OWLd/0WpqdBcBlRdETEvUWDvFiGEDj9hw8hthPU7MkvK4ylK0U5GYHos0a5aSo4MUV0epttmY4buQZuFwy6NTCdEj724WgUrYreh11fAnTEp8kVObRDLlNwY/H/HuvN0bOK+8S39RireuiJamsykGdHAdKaXrpHV7sPpVM6rEU+UQNbolz1TJxituR1KDdsebtdrWIObiIv3qi0K+L1qUdpjL4IXtzsKKui/ZMy/nvWtRLI8n7SCNIfAG6z+Bl4SuNVD5+H4r1VVs0+fYDhKXhAPew6eUAdsfMWb9eAy0GfeYUgrrDxACw4eR9Uwbz8BGNPJvU8nP5x2OiEWwStD2kkcUZ56f2XI3PGYjBc+jp0onXJxkRzYbFhr5isBr6/H3Q3Pgctqv3iYrYhJdaWfDLe41u1VNG/zGXir8GAGrQCPkyoeWFmlxNMZr2q2o1GN08mdav9DjumE6KETR168dGlIwwwOZv6jGJ0whv1AS/1haGBgg52f1qbw6nU5KLSD1R+lCA4CXlePv2meA5/XenWN5iTQYlaOFYrXcwcDArUMLrD7CvMXnwG8cg7WKPASQU+/sazBUD9Qf57RZWw6ubf27PcQTCdEDx0Y72UqJfcSJm8xiP7wYMRbQSBUnsbLog+9nAFelwPwysj2Qyu3DF5fj78vngOf13oVnzYm5QEfTxheCbiWtwaMvGTQpcMyaPoGkMLcS6XOdHF5kk6DgsdU1Z9O7tTwH3JMJ0QPHTEz0b3c8Yv1R6dDWJ+CpA830S9Jp8WrVy7Y0pjm0HAtS1VQSPcCXl+Pv2meA5/X+wpuBTR7uYl6jbnMS/VXn/GFy6DYwiwcDA1JKrUNLG/HuxKYD7y61vqUJVPMdQQ/BlVc7TFS3TBGqY2AZ+xCJDkE3rAG8BDw5uqRMtUpo6XO/HuwuaRvlx7j7XhbAl6o4135cS++hb8ZnAnbPJt5HcXyeIMWqe5DUgF2nlpONDgCxVcBb6Uex77nwGXNdUFKfbYtPKbb8a4E5ht5xT4GFYGbTMLaYwjGhHx3xIuY1IYAOT5Jc/LgDZYxHcojVkJNMWnWsxMWqzBnU/ufb3o6uft2fvXVdEL00Ikjr1iJeDoeJIvpHN9iAa9uo2W1Ic1J1AbaLsITNl9PqJBPPAc+b44rQDexL/gWp5O7b+dXX00nRA8dB16MkWGidSTTp23GI0xiwiYzHp6wpTkEXlEpMHqfKhM2rsffKs+Bz5vj6ursC77F6eTu2/nVV9MJ0UPHgRdabjRxkTqheOUJGxYCOAaRmMpcDsArRgreIFsxlZlaEm+X5yCmr+FsOrmvoXcz8TCdED10EvDK+hRmMq8bnGV4oxLw+rjdaLMVIIitd7yf6UnDrMsBeLG2zMsDGLxtkSKpxwvNc+DzJrw6fIs1sLGJ6eTe2OzvypxOiB46CXixCgXo6bKuBLgQ2/7ujK16AOyezQv3PZ37nONF9jrxorKA19Xj743nwOdNdkXLf7p5o6mN6eTe1Oovy5tOiK3Q2cOCH+z5ZOrHnO0sawC4CuZRn4OV2iSPb4arJ709rRykxOOc39i+EHpVrnQ6uZfb/HU50wlxAehU7s4CHGBdOO5fqLDjLqeTu2vmd19MJ8QFoFO5VUtwEF4YFV6ql9PJvdpS/TpR4eqZn5QynRCXgI6X/IwcnF66bu05KF9NJ3drsxwwOgfeMrXVt8Lf6YQ4I3QKcp2NA9gXCqvABc7m2M9bvrM58Japi11YPmM6pmeDTlGIM3HA9oVjV31BuZ1O7iaOcgsbeE1Gxd+ZoFNsf7ZdZfR9h9q+iga2OKsIrdTr6YSdorT5ErXjJ5hmYG9RY4xtGOVfoj4gi7ecWthS5cPFhRbwpuQJdepURbycQ2AKDsImz6gwlu5PbuvvJPlFIb7d2h8D3pfF2+sjspLcndfT7XJlL/ndXuKkMVrSCNBi6tb1GlDL7ndacJf904EjFydCwJuSB2rnVKX2dt3ml2ZJWVmqD23Mf1IS4vuc/H7w8hA3UFAFuXuvJ/hz7s4HuO0hesLhhh805iJAV8ALVN4I5wB5MpYSh1nwRvJAnTpVgRd2x8IPVZFm4d5e7hiUFz4KQhyBq18OXtrv+AZ6C3L3Xk/wHaL1DvjJkS0DO5awjFOJAC07OhjEoGaTx7cs8LkWMmqDJxfquOMEo7cGhULrBF6XhbLBlXQEqAytwnVxaCXZcr8avGRfYF/MbNc7JBbkbkos7Q0NSjtQyzWyA58LKFYZeWXfuyYWWkBNpjak5EId9vrRIG/hpRH3EoVcFl4J2V3KzOZ8/8pdfJeH3wxeUkH72he8PIPc2Zugsp5sXk8mQiVm8NoeUUZ0BbyihHYGb0ouTaROVSFOpHj3p1nRYcB3au6rIMTRGzbJj1TxgOoGFOnI7G2AfcFXHeSOx0Dey5LvvJ6sAwl4xQ+FaClxbPAyM/LvZo2jEUJ5mrWBV25W5/9Blp1LrEXEWYYDeNmLKUx9vNeT9XlG8DI79O9gjQfwxqy1SDYIMSvidxJD59+pJJYdUN2AIrG97NnjWN/yniVsTSzI3Xs9WQcS8Aank4nUhqjKWugqBa/ztzLGWrs5LUFBiCM0OnIHB1Q3oEhTv9mf0n2moom6Ja8gd9NoyR8qTNhYQ8BlecLG4d+su2/ovGFWRk5V5o5VmbBRljXV0smpswtCHKHZfh2sLiyFpSKYiNKwe30Y68dBS80nti8MWY/IVlyQu/d6sg4oMYPXRYDWSGmwZuGNYNQ58GKBLrJh1ob6hC3aw0Cu4aWx8EGELsuainUuclYQ4gi89OpgdWEpLhV9ubB7vfjqxUFbzWyybyPqnl+Qu/d6sg6k4IVrSYwADT8/xHi7knNUBrwUMFqP/CIFZwrWJbw0rGjRqYp6jPDStEJChGmWMaa1L/VTEOII7PTpYHVhKa79cMiyEHavH1t9OEhq3iPkn86g9MP1fPWgl8EVrnZRLUwK9T0tyN17PVkHUvD6CNBks8Owi+XaGnhpyTdw1QpepXZOVbI8fNWRPM0yxkL9y5wkHRyZgT4drC0sxaUiF3avH4t9ONjrKAUvOjrkjYrRhg8eeYK1SDbhsF5Tsc/2YK8o96rXU6bONAI0RUPL7woKAaMzNdSTArVzqgIzGhOOSrisehXzpxSF+DYrfaBTXViKaz+YVMu9UQ2sD1sdObh+HykgsAyomGMfjz+2bI9BmA5FB9uKbNe2KDYuDmof3qaTex8uGmnta20/8cNXjfTzZ04nxI7QSbpcXVii91Uu7F5SpPG0hYODYpIH1+NPfvwqNkBD3vFu4L0er/3UienkXuS4b4Z+8wjfX+tbci766YTYAh3fwezCEoG3EnbPl2q5auDgdv3hyPtUw/ncD3e5ViUsb49tvdPJPcfeoDTEz8Ang9CzsIQyqJoJC00nxAbo1PqTX1iSkVfVzz7Vaf3FIqLY7lSVrXEzIOHwuJJ+3F0Hnk7uA7gvFOHdRzBnFLKXT55OiEXoZDqdX1gS8KZh9zJFG5KKHGA4vz56qgkN7VjWXoeoW/B5sJz673Ryr7f1a1OmE2IROhlZ2nTJLywReDFhk+FshAnb6Ry/xpNhYrQkeD/svlt82qaT+2jdWH9F0wmxH3gZoZjBp6uiBF4fdq+fPD0HJ/qkyYiaQpmX/ZXi5tCXV8rHdHIvt/nrcqYToodOs+DyC0sMXhd2r7mWam7KAUP3Tq6Msxz7Nj+L6eQ+S//W0ch0Qkyh09bX/MISg9eF3Wurx+enHNAKfeNQ6IuOcNWsN0wn9xFY/5QqphNiCp12aTQtLCGvGQmF6h0H33no6hoa2XrVrFGoLJPs6s/kNyVNJ/emVn9Z3nRCfOfWjiPkLhzAC9Y+qNRbH+5S/6kwR5xO7hnZnbBK2N2Kl6lgpUnTCbHLrZ1WKF04EE/HYXx0qR/fe82+NQpyH8pOEysH+eThLhe+UjSzYd1fvlRBiCMw1iTPEarvUIVwcGtcIBqKFmq+Sw9pL1ZulliQ+1B2GlihBaBvLGVf5GsJX7Y5gwW4gTePowZ55guMniocPO3Dg9n6K2hJ98SDHtq2LTi4HL8/Po2QVG9EPlBbTZ8PvE/90tLhLrEWXMs3CQ5V5e5Drl1XRuV5LeCVzwCXuubB6/bEf2lgJQ6v4XLc/vg0DFKuFfj7Zobegtw9O7nq8mllYWO/um5AVqe0Qsv5etedOl1XyvKcSyLCQfO+EocWvyeefSduL3YkcDn0naK4Pz4Ng5TtmUaw8XkFuRM7iG6n9ugYzy4Z99MAeajTvwS4ERceB8FtrGV6ijSwk9Use1GrVfr4elZ8fb+xa2PzthrwZidM1ttobYBq7PfEq4MYD1gux+2Pj75dpQBIWb2yIPfjBZHJcOxYUQ/x7NJxPw2QB8WGtiLDdyc19Dm3CYA3NTSIaRDqOgXlO2rgB1+lj69nglrjb0GII7C6GvDqd7jzXYp2XljK/J54C3f0c0To0OJn6YPDbWnbKwbtjIm5IHc4iu2uN4r4S2UgQo5n58Z9Sozx9NxLQLvowIuoTTvT25GvI6/VLA+Wq1JeONedxtfLi20dqQUhjsAcJDJCLe9UIRzsGh0B8B15dpYI7hK4v7LFIsamCTxIjt8f78IgBcrkRAfwJIVOC3JX1CIyGG2ms3h2btxHYouTlFMb6LvO2GjxfTbFm1u2mg28SZU+vl6F7XVdFoQ4ApNrAW/iQ5vpldN5oUDGT8x7/pMcvz+e3tp6ZAZYDi6aSy/IXTUS+ro4XvbQWHiylY77lMj9INx1cpIC68zgXWyGCl6p2cAbq6zE18uIbD1JBSGOwKC/+RyoUx5+SFzVQ7hVx4ZEjvE6nDl8FakCeTypchBz4pmr3O2Jd6XTnJDBJ9ipZoeNbbF22hSX38kW5M7jftBK8SKQ0lB+q4ZkfSNY8yQJ/xJI2/Xnpwd5RCSmsrSS2A5VWYmv5+tZ2VUQ4uh8mXysYmBWHn2EyFDM2jjDJAJLZ0KXog5fk4LX7YkPd3EPL6E0B99aE8b4s/QuDJL1Nf6eZeoVE/QsyJ0HxaBghb5yYJAgwmTcB2CFmiThXwK1RlwCLbTRDeCW00o8eC1Hozy5KtZ2EYQ4OmNBClazGslpMNIJsGpvQiD28gw/4YYS3VDwngqxblzlZhKVPfE2YaOrNMfvjw8Ttsxn54nh3HCM5NBPHrblqUZyYMeBNx33HXiDjMMJNekO8wFGoowVG3idfPIXNXkisAtTPi8/8iqFvTS8L62OcFMtIbmhlDQUvNBQsvENAlqocuVH98Sr7wbrmC4Hu49JFSVzbyUMElXS7cj0kwoGtYGfHxNhOu5XwJu+BLIts/4hORarFFdWs4gzvTKVeht5nTihLtA9P1yeD4Hxi9WH1F4evo3wlVjlCV/BcB/A27wmyw3bPaGLG01avmvPShzqiMjviYfNiL8+T0+ay/H749MwSFSJHI8fhZUlVH6L4BWdABM2yMo6kI77IZEk4V8ClSbkUo0HdCG+7C0jrz3BXxJfL1vnWhILQhyBPZN8qAqSpvWCF4Qud0PkmtrLZVoMotQq7wz3Ct62NVlu1HNwo81V4f1sXLmR1++Jt+Vh2irpc9LP0vvP13O1pwcF5au/VaxN+i3IHQJgFn84IIR1wI37lsiScC8Bq99F1TPLGs+Yye7RBl4fX8/qXOVvQYgj8GpCjlWxHgcT5kM/cPDkGwU6tsTTzbCR11nlneFewdu6JkutVjk4XJ9seYoc1c4qe+IBA7OP+hy3P74aBomQe88qKbG9gtwhCqxAnPHhH9KVrQNu3LdEloR/CWj1fpECfv4Iv3C94tnlHcscUs9VEtrhKmmRIomvF1le31lBiCMwavKJVZnOdcLoC2OZ7ljx9nLhx1nlMRqxpZQN9wLe9jVZarXOgfKC+DYTeL6Hydl3B1+5gtyPF9kN9GQFxzrgxn1LFEm4l4B1z1f+IHdQHDuxwtHbLYhGKslVafH1tM5V/vh+jsmiSSTWCZjSywta3YG03YeYnMwSL3IUfpxV3gxqbLgXqjDFN6NbbCQ5q3Ogmayd7EaNpsFRRxKrdcJG9rRB7m5U18J+3Hc15sgdAaaWGHhftlQSQupViJJLVJnE10syVnbaIMQ3Oc1Ah4bQK5vhn9AIr2I0N7oUvNK0WuXDDJwmzkLVuibLFVjN9Y5wtCdTgMfwkJHBrXmO5tiYTu6umQEXZltbb3y90KnphJiBDim9d57IEAb1i2JG58CbWuXDnIqKGxW/COmfDSihR/HEao4p6dlBNQdYvC7PYxo5PKUqnsMv7IH4kjoDRGzJfpH2ppN7keOOGeuPrxc6Mp0QM9B5XX5YYSCV4Y5pLxvwjc5gSaw5q3wWvGzbp3+FRQCqxWqm8/JxQKxHwq9QnI/AcV4jJjfG29min2JWRAfPgcqVF3Omk3uxyY4Z64+vFzoynRAz0MGK61n3NWDOq3gxuhS8ziof1AYy3AtVy5qs9s5qDp0tnhxuZx1CPSYFoDq6Q2Wn4/9KLUD593V4fEmpa/v/pgSKd/TNjBx0EDRTNU2YDnTUMroUvM4qf9TFfDbcC1WYsBXWZIV1q7lPR7CdENMV8+zimZ2pJnv4yF//7fL/2sxtnZp786ZtxUUCnWQ9gCgHHVonkHtPUUbFxcHoPHjZVCTrtEBQNNwLVTSVNb22reYBzBeLwApa8pgolsllTPfGy7X2S9OmE2IOOoCs+jXQNElgbHQGXtp/66zyznAvVFjVjV+tKd4Zq7lIMCQDjOuuxSGlQ5np5B6a+P0n0wkxBx3ceRsqnwZjoxNYsgndr8Y6w72CN/00TfEmWc1FgkEZum1nUNlYaDq5xzZ+/dl0QhwGHTOhV6zydUt8dU02c6eGcZCpyCchCM77au90cvfM/uqr6YQ4EXR63I2pODDjbg9WaqTTyb3W1O9NmE6IU0Gn+71YnoMyr9PJvdzmr8uZTojLQ2d5DspwmU7u5TZ/Xc50QlweOstzUIbLdHIvt/nrcqYT4vLQmZaD9yZt08n910G03KHphDgtdMo9ijlTcnD6Zj+22FjPs0a500J0eDawsBiijZUboaXGo5khy2S/K6eLYIb1eErodONoSg5OcCPtxkWeqlHuBF7da0FuU420Uv2LrHe3pi12eTY+O7WDYAZ2cErodGNpUg6w8e2dga5R7tifHx8N2irc1t+TfM3z2GNDcVuVn5DfLpihvZgUOp2YmpYDrLQ1xp9sZrFR7mD8aUF99wgU0Areq1A/4njd3PovyW0XzNCOTgudLlxNzAFCQdRd6bvwRTSNcgfj4nACwusFTwnXmkQDgKcqIkbAt0c1453uGNmJ4zyT/wH/GoX4Vv8nhk4H3qbmIInn0YEbT9IodzB+sK0fzwtCBlDZNBoANiaZUyZn2V6hbxuvfWO/9apRiG91emrotDM3NQen0dQG3bFsXSLG74JDaA0ySrtoAADvPYnj+20xIs6GYqvpd/9+JHgz0fhyd2lq8Oba7Jrm5Z4B70twCK1BwOuiAQC8Yln44ZJPU4oJ6n/Q4YU4ZscnhE5Hpifk4G1B+S5kwKt6A7QGAa+LBgDwCkol9kUsbq54b/P3ERV4IY7J8oTQ6cj0hBy8LSjfhYg+rpgZZ72Bh9KEVqMBALwhju8tdTRNSN9mcf0VTNfbHHT8JNlC7EFK5DcmGqQnkYAZqlsqvcSEOli4BQqfmz9yHOQp30k9l5pvrDTIfU8+yZc7/Q+2C2acYrqRrcEsE2k0AIBXXf4pHEDSz7spEI2N/5bMIMTRO5SINNTtJ8kWYs8i2t3p7nkSF1BP6cUr0pyPMRcveb/nOAisjHWS/+REa+1B7tIbLERwwFQpx4wjmubX15NWzpjWRQPYwMuCCkJsFXdfghx0/CQZFPKxG7gEnSm6HMXB8yQuoJ7SazQ+jf18Ls9Rchz07UUr/cCVtiB3WGsRFoxD4YUVYWEc7k979vZkWhcNAFIKasMDgYKDeTdU28r3byCYrrc56PhJMpbw2RMX945evdgugDviSKKXMBEavQxF+m0+jbuTuxc5DnJ076Uh7HBAXfeavNwj+rgGYfyMr13wIh7T2lYdidqehAPAe8dswjj7oxaIvRC7C7+dMgcdP0m2EHuGP7YGOZIQn4ED6hm9vkf5RmkEniw7OQ6yhO8lDlpp83LPgvd0eT45dJ+CN4kGQI84PzFiKgua7mYqe+9WhtI56CRvO0w4jMIGFV5KciQ+oJ7RC3i/KFifBEsNbfqTQO+TR7+Sj6b1q7YDeBHFWN5MTOuiAQC82BdEmhYvT2yLFP2E306dg46bJBt4YavU2ujEkfA8Rv4lYFfwshc8I7jATI6DAulbyad7/0gOoc/ccnbkxddkZesP09pyMHZIQsMN0eLZ6PCwDW7b8vBbNzIWzkHHIbMTeGk6wwdUu1Cj3Pk99Ab6Kx6BvkixXIYHb7SSNXCURgMgQeo1lXjaxpw/aoFNB7EGkQ3OykEn0QlguzWKktrwwNcYUyOq0RvTGHXD5qscm4E+l7lwmgdvb2bCKCAlr7K54WzW3971fWaBN4XY0OkcdPwk2SgqEzax+/DCZ5iwcUA9ozfwQm8ISnGOkUCfy1w47U25V8B72rHZpuOej4W7Pl7zbwqxgZEcdPwk2SheFVNZnEdHUxl5LRi9gZfinTW9JwN9A5dLZb0p9wp4oR6zWqXLbkt1au523xRiA7s56PhJslFgLvJ83V4SvcyTuIB6Rg/wytew4SHTZGIN9A1cjpd1DSsFXep8U+5V8H794Cm+v+OX1IXptdG8KcSG7uSg4yfJgeKEERnHkRRcT+IC6gV6IqeW3Ye366wE+nrW+CkIKM6v7o41Tyf3jgz8BrLphJiDDg0YySQ5CpC+VyP7UqokuYB6Fo1PP8kSq/FnOQ48xZhXWP9reg1UmppO7pWGfvPldELMQaf2tquLtgNJKNRk5AVRjoNQdvwTWGDl+etS9XRy79L6L6GZTog56HRAZgcSEz0menaa/c1xkCUcKbFP7NPp5D5SZz6hmumEmINOB2R2IBG5/mBttPk9neNgynuCiWfnpbbp5D5lD1dW93RCzEGnAzI7kCh4LxJpoyzQHAdl6hFyDt09MqeT+wj9+JQqphPi7NCpiXx5DmoshYTp5B6aGPWEPkLXXaMftelyZdMJcXnoLM/BRHKnWGZ87L7T5fNyazEnyKTxI2CRXs4O9BknfHr7mmlOvxJSLVK9HhQF0NcdeLe6pwQvuwfovpolfr4rm7Wsz2v4HSp3XgEGePFNuOOO8FTygSp00gDAkfkKNLVkckH6vl5hXpfQmG4Z2gOsVtYSBkUB9HUb71alrbSG6/FOYLVf/GhaPB6vp5WaOim+Q8HL5QBeafPWb2UEhRQAGpmvwnnp8nmREf5wTzYYG/HNvrho773mDAAAIABJREFUCYXfIVEAfd0zgvcLH5OsHZiP19ImTMi85QqiHS+5ZeVEGzL49W3Xg5e2/ParQQGgkfm6lcUeEhUkfFmoSN9GuZn3owDOCd6cZDrbEnKFu6TVOtil0Kg0uNXNFjxureX+H6BmvUwjoOVHGc7V9zSMvBhICbwxhkAajI9SqR7drUPLkueTysci82nPXXOchpFH82i0Dk8IuWorE9aoREOpNga/0jP4Sud4Pgpg0sAejPKhJzEOgkVacbwHvoY9RLF437M/ALw0GsYbXxJQxEOOQj7fveOHIPX+lz0gCZokAECIIeCC8UkqVDfecyFZuxfPAx7eIJ02p+wgKTAG8KYgDExc0dOjfsrcN7anoMKX+8NNOrybR9LA1fYG7khwe9jvqTA1qTqv4z2wNfANkJTvefongBcfn22fRiXYgAjdTeYNR+fb7UeqSb3/qyMvlFBaFsFwKjEEEJMaH/5GQbotlHq9Yb8+vQnwPjg+btj/zE0Fpzeio/1NsTlOobQIXvgE7HTnCeUGJqRRAZhrDEEBuTH8aHX046MAJg1g6zarJfwkwoc8xkGQuj3vSY0pj0nyVKd/BHgR4VHdcspi9HJ3N5l31lHJO7mwxS3NPIByOQyFZG04YgzkXZC45kwfjA+pvODHMQLUKZtwgJpDZD5mUEO1cnOcgH/JWx1wpbn38/tseowxwY0aeJPGvmUoRVCAFLzetTltQL0RmFEXB0Hq9rwbh/j1Qkwypjn9M8DbYS7v5e5ucgAvq4DBmSSZKwGWdrAZwGICmIooUtbZFb97Q1whMR/69hS8QfWs33qEmuIG76LNK3jlK7YGXh7t5UWv8WDw9KXgLQeVeDHYMV7j6XBuNVx3hfeEOy/EJGOa03JgsZHa0wnJSLUNrabdyuHl7m8y6R3hNR0cnSSsleLmIiaaB97caMt32oLxWSohANHQpC9naspytHtpc8Uenx5XUkbT4V+QaeCNV3t5zkj38OBNNBHXDuCJXkjsI7NscBwErtvzHgqe70wSrn/BSeW+rLZHAby5QHu8OX935KD9NsTil6aBBl7tGDREKA6h0y4Yn6USAsLUiRMtxyqhYVWbaxQYLbTR2KtMRLhGFuRJUcxWwBtio9Qa4dfLD2lJPg4Cg9fzHsruLniYwtV2MqMEgtzlfcwQTYapPS1n8TcvoNbaQSpnBbwyuBkYfTA+S3V4yoEXSm1oLieC89WUXfi50LrP6OClQffE43UGvNaP+Iwyk2yVyLG7pU0tgQDeXKA9afxxJ6R473/DTRhyeHCz2+uD8VmqgFe3PrPakETmi/2U5uJ1PFOdmBJkLG0Fr+i/ndWGL6i7Jw7pSg+G6Fyp2pDyHtmiMCztNslIv531kMCZ9cNCgQBezve64V73DmBe9oWYTzJJOshOGsVNAC/wGt/ZduMlGF8KXkBBTLU6YUutIa65HLtqPKCsb1Z6W8ALAEpjXSdsVC9CV/H4np2wpbxHDtGpDb1RHGOeYW9Hw9b0JvDi5vOIwqNkNJWxVcyD9wRrKUgNpgoaXSWxVFYcEeqMRjQ1lXntM23OJHC7Rldks7khBriQtoFXd0TxGoZVSG2nW03SBqhiA7qLg8CsA9kp77FCyCl9CJOMaU4ntzZMw/agWhtX2hrBS9P/G60o0KDrvP9xv+D1n5jK2NBrMPXB+CyVEYBHCbb/6+7Jg7xfpHDNaVeTNQT+gizvEMR8TZ8gZqI0YSMt4IjGKBhgIrniIgXRwJIsbxgXB0HA63lPavRCTDKmOZ3czjsN28NqbYp96uXu1YYvDQUgniLO+x9QRskI3iPveTCYkhaIad5ZgvFZqiBAV2xF3Q2R+bhjrjntqgPv14OXe1G1vEuUiSJ4v6QxhBdOwVtcHqYmYxSDNA6CVuB4VwbpxwsxyZjmdHLwHrAfZDWHWGGz7Hi5uw0sRE8O/w+ZuciFaH3Yg4OMbIWSmAbjq5IhT7b3IMMi8ymNa65ajq9pc9DLpkctTFABNLYHIlNed6nWkG1EE2MchECV8h4Sfx14bbiJPVzwTGK9Zxnw4M2STJmokfkmasJsa2y5tTYmiAKoQtwf7dG2tqb5nXzkXRV4YT8tiXFh8GpkvhJ3b6aLTQJLZmoy4+qc+8WbDWhxFSJmBbOg9w8Db/keLQxeACssPJSZHJqDGRYmeFDAExVukBtQCwMqRKj6u6AQtRR5J3sDr0pvafByZL537mRj2cM37UP7MR2ZaKeIAhiE+O2ek0bW3si8Tq2edFMbsB/Pdu+/0Zl3iga5v1PJn142ChHonWPsnVjgXcB7FcPPMx0YhC3+cN/oHOYUsij30Zv7cypMhIg9Zp/f73ZTGRlDj9frD15sNfSeZctfDzF0eJXge2r1ChO51zO3lG4SaBaiWL3J8r3K4x/+6tZJRwXjK89V0Lfa4mLjJy5cLXZR2Tdjyekv1lTrr7RmuafFt/OiBJqFGJdyVgney+WvYsdKGTf5hgCyAaoqkexoqaY2XHfSM3IrbfW2G1rZsvISaBZiFw0yX+8cqbRK+VffhvSrrygGGOO/7bZgV29I44AlLFNSsa4jjuNGhIhd1F5Ix/r9UVbHyOdcfdXx3Xp21RZC2lH+o5FmqKwezXI3qsV/VxmiLEilJsQT+xxr/trBC/X1r9CVbie8hzAhNQHQL7qLNX0crKSqHzltbDyqxZLXO2O6vJiImNxycbBdE46MfHUVJ27sAICGUl0atWYTTvqchldi72hl8ZbSHsvmCGIjhCjr06netDUhYotRNC3HnvauOF/AhrB8bs9UGI1hIvmrXymU+LaRFSX3qvhyT7Gh5fKN7VyspMJ/kbZ28bROh2t86PgEhIf0w40iAEGDln1Z2HSFgRkeAbvr4YCk3c8eW6xpb+u+tq5fk3vXXshCFcBL3sP0kLS72buqwy3laGWNSwdjhChzbY99URdiavANPR272VHqoxWP3ujFfgPc8ODGbfYFHlPVRUs8AHS05WUV3WHyQzt003TdGoJ1UH4efmiABa5It4A/C29Gf8pVtcN1uVcpCtdSEI1Ifu9oZXZL1cO5KYLYKCHKCt0YJdmEkFSGwcZsO9bTJHdFp4yrCnrbOT6xFyz2MbP6ii383CPeQ8LejLhkaKhbAr8reFs4ksk8kaZrawJQmgJCR9BYZaJR19x4THwZuVtW828FvFjnrU07GyswAWm0soYIYti4rrZTdaLv2VIjG6Nk5hiCPBS91tNRmhq9EgZvZeztxPHhTFZeHhLv6rFCHuZwK5G7xf5TFK7IDN9Sq2A0TRe/K0R6EU90jqWkW6nUJatkjsjJPREQzf+SWF8hWplGq5HHi+llDLbAYdBayCnuzIxX44elwcq+LFqZiyCWRgJJ2sADmw9RVmmBG0/YTjo0yWlWiOenaoWdoDAJX10qFfB69Hbm+IXQSGhE+88YS3ysMcTiEQZOxXGWfVpfogek6eJghsHfDjz0avnVId3Ukmp/snIPRD7WVxKtjAwsVDSoDRjtyWaSjVbm44f5gF8hWpnbIo6XbuCB2kgmB7wNHtnWEmtSvgXdg14JURYrHP0s5bZeeWco1IvOkKLgdeht4fgczGCyd9/IH4Rk1WzJ7YXU1YOEiWHtAmI67SRCTJr+5L1Z0A3NO/0GXVd8XXVIT5c9HqaNoXIv96onhY/1lUQrq428TdHK0LlSsDLITIHpnHMceDuEKHMtsPcPxUPzIcomBIIXYrUhu7fV9HVcG3hpkPxLWWrhOFmFYC9uw+u3TMUUXdHX2/zBUS4aiNGUpEuoAQ9EfgzY5sAcBR55ChftOF7uFfD6WF/RBZMeKSmIUZGsDc3RykBUClYWo5U5t0inNnQIUeZawAPBBsFKiLKv6fZeeiEqAsKPgwKYEj6gEvJEOvU8SsatUHrYiWszX4WSRGBE9LaUTj42xT7WqqDCYxADrKn6NNc6qwVUw28eL/rRN5euQLXX6+MIrOhQa3yk8n0lm6bTdLQs7mDWWx/rKzi/897uAF7TVMrRyhqClSUt6pvC2k5/W0OUpS2QwiSjuTkCa1VHWM/59ZVWPcq5F6Kr8gR301SqwKyMHECxbpHX+H1cTAexdzbMc1nXpmMoXChJBG8ce/fNZvdvWxyGHkmAefK2A/L5I5Ov3EeYNx/AoGx8AGqpWfKE5Rvg0rXLPzK/RTmQKFOa5TsTWrcB1HqUipkYcUE7fLSyAN72aGXWOPFSCfhlWWCgAQHIbQ5RZtVwbytsW98QOo+O4wQDcAPrGM7+u5OqfpGAdEx9xvS9xHzq9wMaKgzdKZ1wWRNIiQjpSoLFMtM1yfz1V0MJyyK7+/V1vmKzNO+hQzDYx+18xxXN0DBGcAxbaA/o/M/DvkRP4JVXok8nlRLzerw8aWlDPNW1/4phtTlo81hpsyE2iCkTqyxIwOLT8N2nf/x6oMrQpNVZjlZm9RC0kskosWBZOPUxHLRW91MOUWbVMHjtAsKyXko18gDMC166Y44NG3WeFxtrDMRJX4NUk7Sup1w2yKBcSkmwppAefysXiDkyj8erQ77KBIziOPKuRcxh2G4g/t1qQvgRa1lQmfjJRRFOJwHRm1JqedLeMVuxCzYHt6EsBiIJYhL7AXERZB0kYOANjygAIAUjeAUqVoQezuP1tednxxJl5FVASaJlgeMieM2NEjSlEGVWTTN4UQEi/NN/iGpMFSIIUer2/3FT/j5JwR2kW4n5NAKcUDqUOGLr8HWDUZKDw9psGHcREnc3Tuh49wqipYRZf6SLEbd9YdoGYzW5jxPQRTwae5L0gty8gxM3f7RB591EA86sKdqhE8Ip892RStJ02FQ5kdL07ghR5T/tb6Fjf+NnBvOiwC2ZZRFQmf7bdM40SR3C/K7LZvC6aGUptGzNhN4vYC6JVhY4qfAMxJoolBGmTCsNA7iC12k71erkmseEY4zcl6fqmIpXER9CfkjuI6X8ZxgN6ApKL3WHXoUCY55eOsOf2SET0ySVpAN0MrBRoHkcfKtSOi0L6QiBTArTTxR8eVul1Gv/izfBCN743ZuqPLAOYJUPHf24f2lVTsw0usp9EC0jTNg4WlkNvOVoZSnOcO+kTg3FpCo9mChO2DqEKEtbqLKd9i+eqw6dGA1jXu8zlapoUKdvr6yEJ0urhY6HM5qhi0CfhEB0gD+IwE+fjbyJadJYwniyOx9gY0IQINrRwo9pShdGXhDs9VMKX+4TBRRpK35YwSrW3wnBC101DEKVVjteIpgdHXrPzmTiSktWwOtjfUVTGRWvgLcpWpmDViXgV1AWnKnMBRDDE8eTVd75TO8VbtpV6i6gUTF88L6uwCjtKs4BYHmQTo2vq0qpzCUa4oOzjJdAV0kwHewkZnysO0EJQx95jNQ3K/cwylttaqgRdMQydA8SCUYCqCAVOpVOYp3EC+tJqoqE7yh+nAAUelfpbOTjhc1bsRsjVS4YtMoqd7sS68tFK8PbD0CyoZzGHoK03SgXrcwS+c5UAn51WaTAjriWEGWuhUKIMutj5hdYeMuM5oRovIR2KgkQme4+weZAOpOVyfTbBIKh8KYzo0+UL1DL1fPUuULHWaadycOQRrxEUZmy6iMe2NQK6afFVOaLdLsCdnTE7EbficrJPbG6SmEf60t1K9loTcpVCt6GaGV290SSPuBXiFZWXh7GDW4LUeZbyIcoaxDHgWNaV57cBvpqlhOi8RKIqgmEOLHCPzGMyv4po0lHXm+alOqMTltk8FboOMvopL50r0zFVhm4lBOp10pXMld36eT+VYtVVon1RZNMedO2BSujgrQt5xwmnrHryIraj0Urq+00jvQ4o+l0mN0OC1Hm6qtf3K6mTO3pFdvrcEKs3flqAim9smhP0JJR0WhS8NLbTI8wCTc6bZHBa0T4zStVLsp7xVZZ6ecng7fSFTNS6fpfJXecS41WNmYEsTfZhrE9Bhfs1Ml+4MU3h1hhIJXhDg2B3uIGSg9eMv3wIS/6hM6D18jYeMJZrj4HXssJTboe/iLwZmN9uc6+f6HRyt5ZEK0y8R7bGtpUXLurVeev+4EXK4C2xw8TBzGyGKRS8HrTpLRsdCl4K3R18OIBkZcJqcqmDautstIhqddaqWQufFmPJqFSyPOVi/WVp3wjlaOVNboB9a38bbahQiSTpPbmnRBrMq5BARHUguuB+h0YTQreMBGTDykwG0anLbKiUKHjLKOT+ioTNmer9L2Teq20z1v6qs6Vk3uNvUysrxrN2wk/2AM2bgSxMdhW1f67iwrRLMSa0GlFVoZCclZk9d9oUvBGE1icpxudtsjgrdBxltFJfe4TBRVbpb99Uq+V9nlLX9W5apb70vwu3z7bOe42Sy3w0yzEmtABWdltRXuwBMZGE8BLdkhnmpSmjU5blCmap2MbptFJfVgfeL5sg0zFVum7JPWe6hN3T7bIlfUpNt4s90j3x56RCiEYKYugWYg1oQOyNpZiQxZXazQKXrFDOtOktG50DryejssandaXfqLA/EySlfnYs+aeRLr0zDzY0rQpzq1Pse4h3MbSf8jZTbG2L1ghmoVYF3qr2MwYmJgmG8ukdFbWFyBbo2pCsHKktkpH19wTRxouhpQJhXuc1OU4V8s9mFwvKe0FyenAzUKsC329PWzuSZbv2bpXb2gAt9ku/BGJ8nXZ+hp9sxDrQl+vsJp7kuVbNZNs3qiJNTPOdDsxRuV7RZVBB9blwRCQwAuxhtVawop6U2WlM3hp8y1/UJ33x6EaSggLp7R72FYF0/Mkkh6KpDlVRjpdd+a2U21/EhGmXaZCOCHWsFpLWLGUpCet1oaTuEhwfKYn2UtoUyEd7BYUg+gBoBI8TzaUpZH0fM4wkTi5N1fR5f0Q7ekN1LKjtbmxTrnpfuT0HIVto0KneozI8dyGuQMHjOHdPE6ItXLYCiN71T/gv/Sk1gUTkP6S6e18w65imEokxAK8Is8cUA87NbHnOATXS8+xVZUyJJKeo6pU3/nSyb25lLu1eVIOmidZDdQ58A5aHsY+1VCusjd50JKd47ntDqKb+9cP7ydyQqyVI2Puxxy8u73Whcrd1lC5vLuSPdc58iOI2E04DaKXnrtIeiBlL5DEebnSSIdLJ/dmendrs6QaNI/z1A82R5cDbw8+YpUVjlwdTZH7Yg3+zPHcdge1KC2VoeH702Im1suRbvcpB5vT6l1wcsLmDNkpdIQrNm/uND2DoajrLhxcLz13kfRsv8Vb4VrdDXcs1i4qUKnlk29z2P6UyQ1Js4C3IXJfYKTxpOUOpmUhRFbtnt/of49yaR1rOm/pgm58Eo6TofOApUMkQvMNc9nk3EfSc1RD+94IXsRWx4ZcnVUCmmyrL0fQC0HziBn2gzWufAQcBq+LjWdeW7JxN2z29WH+oous+dpWHiffl2Lkvr19PUxPaGCUJpVnMvOfTy130LpGv9QwqRA8zvQol9axpvOWLtgQyiyL0M/ftLAHqCKNfdg1uF5yrm7wREU4SnI6dr3Olb/hlWqOF6jmOCTMt0BFp4+cVIlvF4LmUTUOWJhNJVUzeF1Z6TkmrRJFQOMrujB/aZbztY0Vu0YwPUheAykDGnyIIuvg4Uwda9Me7jjUZqy86cwa3qvf9dlUiKZCK86rw8Qxa92lRA6xQCjBh60eFpE0Ca4XA+25SHooGXNc5eWLOlcpIxhCvMciPFoxP3wAWmS041sLt7af2+3xw1sGUV2MoEdx2cMCZBfwJmVt5E39YCvx8tIsavcOD333gMgAGPtejNyHvdm8p4u30jrHWq4P86uyd22sPj3zQqR5C7zuPhjAzT5s7IRH3Sd9lfGKKEAsUQsyjTwLrkd0cl4VUsyhsw5Hb/AyamGHJlDzrT3rThJ+daAb7Nersf+e6fDqgJVRGypluWtxcx/ZBV28PJeFsmw4dG1UwevckR0Dur2VuXaOtVxfo3dtXsbV+yIqhO7ZzRf54FQ83cw9xrEDbtKZHUI4hXzy0iB66Tl0KxnaOJKey+koi97g5XCL9GkAvIL51poqq6FwJLyHgsiN2xVgpQyq2uDLkkDCtmoe1128PJcF6yE/6ZU2KhgqBoKAHw4aY9mrCxmpYFDXqL5m79q0G/G80jBnAMCithxCxJhY4LPPJJ4YcIsR5A5kWFgt2HFJhrJPjqxm6TluLk+ZJJKey+kojd7g1YAJDNUEKnuo29AkrDrJsSvhJaGuMqfgFRVF6fj+Oz9YHy/PZVlLlTYqGKpcRi6AT2D/zBBWFYIwK+AtedfKWmisJD0rtkREENUnqxBpP/Uc0R6vCKxHIwgH10XkAKxQvJ7wELlRd0NwvfQcYEki6bmcTBO5JLvrMS/IPRNoD7ob6bo4GG4CFYQbFUf0CcBLk0M9buHJkAfb0vEbs5rBG+KZSB+S/zyMs1ep801ES7VIgFaKv1FjF9XfIMRqBl3fZCVO3mEJgYXeWum6W8Jp7VSm1RRvUwAl8Td/AE+MAGpV4CB66TnBGgdH0vNUtfrzCQ3glQk/1x9mbRnwFiPoWUes4QqwLJl+iyMvjCh2IO6caSH8VspmVdqoYKgMXhp0JSB3Hbyh2XDCrKPfsj6fdsTOXcP1zU9sRtN3WLSAyB1nga/w3z/8vXUu94uIRq9kcs5xDgjKbHJMg+il57x3R0dD2cjzrkIV5J4JtAeUBbUBhlCGSjGCHllNAurR4QqwUhEUwev8YKHYSiEGbyXLqRxWd+iLJFQujQq/UHfxYTpWwTJqg3wOAQNF2h1663GBpJpw6lryoA80cnKKKoTFiJJIUSv7/08Ibfl3Fd7Xd+nkXjeVyf1LJmx2s/m7BHafFKiqqksnh4A3zMo0lJ883Bzmz2VV2jWp+r6UI/fRSwsqGw+CqWMtP3BQfqXZajgkvPXUjGvthV/XsDEXctMTDOA4njSIu0IpzRrOaZvT31aPXi9CP9hg5JX7lZjK9NbiTtZ0Xsw8E7k78LrAeWW1IdrDaJBz8fJcluHDtVGFgzOVeQbIuKNddY61XF/RuxaLn/Gln/S00rAx5yjiBZvRaELuJR8JVnGGhZzd+tHrRVgDLwJl0rySByO7tY8bfa2WXqJ2nxREfRcp+DZpWYnb5/xg8XI/nvHdWvAAyjSr0q7dbt+X4iIFkWMAlGHUOdYyL2Xv2hC42Bq0X9ewMWeZmd89je2uUIZo0SRIAi+JtY+9XoQ18GJxBMeO1Wy+tbZejGHoWAVvCJpHcldQyi1IV2fzEzaaL4blYf1mugvzl7rIGj5cG1U4FJeHhTtVqL9Sx1qpz0cClA40/3dCNOaai1S5baOeOZ8ksX70OrlXA+2RtQHbVuQ7liY+TchF0LOgeUba49d8XlM/WHYUoTiKMlPyWVS35Wg7vi/NkfsS1pxjLaeji2FzUEJYPHUN/xrwrg29dTOOk3v17gRTWTWjcK1B8wq5fZPb4+U1gXfMyH1tnDsh1mWcL+4K5UmWSxXJrmvsrY8KjSLsC14NmjeSzNvj5TWBN7hYjMRNqCZjcmgUYihYORlUqFLHZJcq2VWhd2LwwjZamI8PkXJ7vLyx3YC6cCnBoD3lIBwOKuTbne7KhoU1oXdq8H5R0LzRjtZ4eWSNNPNceg4Oxo3cl3SJFvKTSz4NTFQzmq4HFWqqcMw8A++a9N6e4B1THL+mrsxixSAcukJhcX7303WqWL+X7SLuUEZIAnhXhN46806E7b3fKMjGoWtwQRiDhOgKYas9LRCzYbI2sId23En9XrrsyoVMATqUqYKXXE3+Vqlsmcs686tZYb//y8qW98vs/LfLP/+Hy3U47HpnXSHe7kElD8Bvt3lD/V42tSytdShj4OWHiXsJjppqni2vbsYhrXE73pZAcgc7AISpHSQCeGljcbeht2s7wlpP8NLHvZIj6d6aThffTfp//ie/KyGpf+zPy7+SgP/1/l//c0DZ/q01lEhuaVdQFcCLHSKyJuO+HZy4bGMdsubd3PZJYvMRJN6iEzYvAsXlGFctb++2DotvRNLH7RSbKNldHA7T10f4zkcvuWDH0I9+o+14PctusF4VTED8Lnj1exWpt7TF9RIv7sy3g9s+SSzzQd6MwlYZ2ZucOk4DyLzhLes07faGTiCyj6syAS75o70a9nqX+8auPKfbdU0IfhO82DfMOm/qLY0tStFlO+fdjL3PjZ8kjiNv8kli5zhNXxgoOk1v4E0h+Pjm8TLx7bL9uilV+zk2GrMnJl6lAcGyi6i97NsUhXnVQPB+yzsagRRZ5Y1bQLH317ls57ybgXh67UBTJe8B89HjDw7D8THuHgYduxfUHaexa49N9IThmmTqKTWSPygBmmoCXOp4cLDsJwX/JXEg+PsuN6FfNUOoz4WJ1UDwkvZOhz579jDz5wZTl20gU56adLO8tok87glvtnY16AZMU87YjOv24WerNbFs4DVJ4BceupVhK7gKJ1RdTuvaRvRK61L+DZrMYgXXNhC8app6XjjobXyYDauYIbAHQNa72dpMwRuGA67BWxsYvPbWYshnqzXprAO81knjaqHfuH5jDIgful11/82A3g/G3avqTYkwBe9MEQvWBjhyECcyDPN/bKZOXLaz3w62+5qC19dQB298yikvW62JZAOvSQK/R/lyXpLyba6eSVqnUwrS4o/czhlPMdbVe+gtgFcx5bylsT1md4S/Lu3yM5zGE3THEj14zRObPkncBl6rIVSVCmkDbyINe2HFpDoGY17jWX0QzwzGjTW8kYnQ4DpfHFBJAbwKM+ctnbpsm9rqvJsNeil4XQ0Z8CJJmFe1Ie80zR3bwBvvb9CvQpJ+BT1cdz/RD0+nBQY/CGklnc5P93Ish9YKyuCl+UCYbpEjtcGMXLYBNXnXZCZsClH8QNVwNWiOgTw7YatXa33YwGuSqHnvIGOoyouiYV4S6q8PxiFr7JPh4669yJWjuDwsyINEzNCF9TbFq7hs57ybDZTpyOtqyIHXOU7DV5vfIis2lVknx75WZaStAAAQzUlEQVSJ/erTzxEkhQarvOQgr4FRQnXwaw/nKz4pjbxq6E29pQGs6LKd8262+5qC1/lbA7z0NWOj4+fbOU5/5ao16W0jr0kiN1i+8aY3A36sPjMYJ5mTn9Y3P+WbLIEXoY9Jb0i9pZ3Ldu7bwQZKB960BiCZ8oxOXk6p4zQscfKNcB/3SFhfB3jzYpw5dV+LPTpc5bXlJNeFn9pg7LJHv/DKgwGkrRkH3hxx6i3tXba7ejcnNZh3tm/IO04Xq93AG8RWX1iohAULlJ1O6krIW9V1atMRnf2C9GjgdY0serGBN4jfpsEhoRp/IWZ0OZNQ0SklJuR+MEwzxz9HTJ/U1ryBd3wRr6fGun2Ao/YNZTCjc9QH46GVdyqnWqrSbuDtJLTPJKqrvGwlH96Z+npwXTEZXnuHkphPJYsVG3g7iOxTSTyyTo8rPCneUqoQveHnig/TxCMzGMfMCc4IvaHa7uANy7drP9HFt9DFZU66mnGm5C5ReRm4sOH8pDpj77ZhoaQjRfCztnmid629Cux3cejtKmPzfmLmV/6vlzCmIu46KkzVPtWrH/m5XcU35XjlEJRvtXh4XI+K4OP1ASvpjItswjhZZnsep7WPtwl/Pbs2DfkKwEuv9DGBGwQVEbw7ftdMyYFsO/lUCSwP3ht29/E7Ek6XqZo6kkQjguWbjCNVu1WzAgksDl7sTMUxDXCDfIFgBKWPWmjI2E4+WQJLgxfY/X5NMeLWbgpamh29e/3gd42ZLWEMCSwMXnK2nkBXyEqG0DtgGpWtq2Pij25j7Ei+kfWTQFczTr9au1J7Y37XUkPp0Jpbth1aT/dy0r+FB4ju7G6UPSSAeysbrHuUeYd0AfTi+0Vh2+E7rG9l1yaB9/wVB/SG0Pu+EblPw6TTbyNvH4l9CO3s2IVc8L24biEXx5Lh/nL/x/cWu8fiZKtnRAkgwNu8oyDzPjt6H6dt5B0RNeuoqhRfZmru8MxoxNCpW7L6N/CaJH7L71LYJcfkQfEnhwt+A+9w2TWWXEqwiE448/gXxTA7emPT29mYElgIvDQJH7Mb/eo6I7rtXEsjwtlh21jR7xZ1ol4GvMtiF07dcy8VH+dbSOx0238H0SLgRVzv6GewiBznRi+2xy/4pllExDM0ugR4ZdF0hs41NIGAGve3vDUa6s5lLf2uyfH08WkLgHcN2EVokpk3Olj8/I9HzIo6sAB44Rc+55hXEvZ86JXNT+fLbt5JYqnjW/pwCSyxKJzlFoG5dl0/65utoGuiDhCPNTyyXXne6HISwPLsam7iTEvFC7zdcpLf0t6VwHILaznO50FvV/C+lnB3/99/5QSzpWUksC7s8vfap1/o6wreJbCLNjf0ZoCaScI37abHSqbdctIcS8UpeE8N5t7WEKflbgzOoW+3/jW49J9UcI3GzhnQm4IXX0Ip3vFlwIs4PZ+K3v1xvqFwjdjFJrPJNzqkfoJNMlgGvFc8vh+K3nRUKA4J42Qsvyic7wfwNJsHM2/ILLlyLARe2iP6meidD7zrWFjL4Xct6F0KvITe/5UTzNrTZgPverHLXw6ZcaMD4qbnl9oWAy+h9+/XjtQMf7OBF8tZM0f8yPS2lDTfUjFxcC2s0iwH3g9F71zgXc2icB6/86I3z4N+1q+QOVGyhX79yLF3JvCuHLvYZDbXRocGEC448vJE8uM0h9Ot8A5rEHL/LCx8lqbY/SubqMR0S8VdB4gUvNhBKceuxYHIhs6BUonFP3LsHdjrPsUgl9Vjd8J4JHnw1iVSAe8RB8V/bZ4rRPT1uSOBNim+oTdIJTmBVKpfA05y13M6VUSHLHiTD2ObBCrglWTE3i6vyYHk9t5HEK6XYwjWj7W2fzNetl+RQNOi0rpkhKesESgDuc2CN/M2yoKXDAED2+1SrLKT7X90KfMH0XwOdqeKR5IF7xdgU9kKn6IUOq9iRM4ONzE06u8Bw+WLUzjhhFxKCuGz6BPCVnuk/WIiKWcIfIWBFyf/ZI1a7h/+C7/Zt76pNq/4JtnokAcvYv5V3KECXtHnCN4HfwrGdFP5pb1gUIZJbeaE24V2KOCQF4d+3V3Csie0IKaDy2Xlevws8E5tbVjzwlru/k2xVFwAL6HXsZAF7+HOEwYHXqzRnW83+Uasghcq9G0PbPI08Hh5nm8PWRbytLGca9kuPgy8JcFad978/TTszhqP5HT3FocKeMnacMSn6XjbnwPvURQO/kqtglemxN9MfNaQ3T80EKe06Xn2xm7gTcUC//L8On5KtK7zuSM6xN5XwMuvePxjQ28OvHvSgxW8MoYLlX1RlL9Zq4Bl2vQ8NpucbeBNhFFT65K81Z4utlRcAe+ND7z9acOmAy/EGvZHKHhlXiFUu4tM7rDefCDdJNCm51nxb+CNYvlI7M4fj8QEVgGvJuODSVAcHHixlo1p1/FFL7UMeG3Ixu+N1r0DbXpujbrfDbxBHJg/mLkmpH3EybwbHcL6fB68gCeGVQdeaOb8nWayVmTBG8xfNARHWn+euRUbeE0oGTO8Za3+d7qNDrWuf4el8x7gpVoe98tPFry7S22eIbTSdnpe4ebDwDudD9snY3fcjQ6pD1sFLbjE+0nH3gJ42WfTRt47dIj9UTRctgVnRt4wYTt+O1pXrs4IUj4MvNk+jJG4N4v5GJUtUAcwNZZraos5MswMsuA9gREsnLHugNGWudIv0ZyDPmEtCMSjqQw9SGnT86xIN/CyWD5pUTh7H2lPwUgbHQxa+Xa+vrDawO/5CnjDvIseIowFP7fb9UIjL1sQcLEjhSMz8mIA3b1uZ/xHtWRhMNr0PMvMBl4SC7ALfeyzj9HQ2wZeWskhUeXBe5RJLwZgHFcsBPPOebrYEapz4NXlYfbLYwuD0qbn2XuzgRdi+byFtdy9fGBbRm3qkyNsSWsD79fpSTB04K1XecAWGrXfYnDAxaOBN8o3K0ZKm57Xm9h0XpLJ4TljJITMTRgpaaSNDq3gVXbTkXekHvSs5leNvLK8PuD/v/97r0J+jb+nxLuSX3uxxMT/8s+Xf+hfqsrQBt6qREa6bjaVkWY1x8FvzZF6VKyGlppmOaocNJvKIvU28kZZdDprHhVgW5nhkL1Qndh9h+h4ec3QmbgRtzevG3h7iqwNvD2rG0Qu1slBRfsUOs7zne7hEBxeso8Ymmg/TOfdwNt0M4fkDYfg8JJD+MyV2cCbk0pj2jbying28DbCpJ65jbx1mbyXMhyCw0u+x3EsvY28URYdz377yNvVT3ADb0fAGFmzYOcR528Hb/Pbze5E2wpbpJvu7MNG3mZBbOBtlk8uty6zDbw5OU2eVr8RUzS5jbwi1Xel3f6QtFH86pEXFng5mmIX9ranLgRe6kzY23LARenB7Nehej1tkLF26yUtp+1Xdqe3t9NG8dvBS0v9zbEL+91r3JcFwRs2VVDMrhJEyh1SlwZXsF5PG2SseL2k5bT9Ssn2dtoofjt4RY5NsQvL97pwDxYDb7Lp+DkIvDm41dPaIGNiqZe0nLbfPxS8/awNceEeO7VLEv0c8B6fFuFgf/kZ0qFcmXpa8+anKMZ6ScmjMHo3CayHn7hPF+e8UX2P23KDqxA9JGmEvYcRoJoTNvieT22P0YeNvM3dqYozglfORKz87o2SUvAeSJ44ojgTas6xf4uNvMerBQ6+XuxpPJ1xy8+sCxu/pQ4ZaKwf8luVmc9tuiqVhPcEvJnhDUHByHCwvJNgerJdjsErBOy+tEe4XRzymSPsq8exe7UEPfxDwCuxCyU6IXxZU0nJvcZGbhJyImOMDBTLUDxf05u4HHgP4n/z9fW8nAQ6cpclkKLxW+qQgSbtyzvW2jJ4d7vzAR7ru8v1cMMPNZgE07OH6EYEew23h1gl9/PtfOe4ZfCAOz7I6S0j/ZT7PwO8GrsQ4/blfj3DjyWRFN9rxW4qY3qtMXUqLjpfDrxfd9EboDWIEw6+0gk/xwdcIsGX8VvqkIHG96cEQU+VuyqVxFuOXHrgOUwB5vGU4b0QPYRpmJWSoOMI9LzF9CrR9nBnkHYUj0LCcK7hkPbbwSuOBeoXDnHxK6oiqRs5YPLLzcnYqIOs9GRB8L7kdkNrEACcdSh+0vZJ45fAm+1Q1uusBMFqr+vXpZKq2um7AY2CtxCbgR8zA++TK2V53uUGAOV3wrt4v33/4eAl3YkOjl2IFxVrh6mk8Jjf7FZ7GRt19bYtCF7VG6A1CBAtADkPtsZvsUPzgtdaY/C6YHqaoyCXN5nZsAnyN9OOONJDVfzJ9W8fecUZQWMXmrhSSQG8LyhX4rvqZGzUibT4dEHwit5AWoNBgzjaQzXX2TtdFjuUliFCPkrjp+WXf0slTW6az7zJCML/wankGB3JE4su2hBOHjbgGkWJhw8Db7MZJ0hAe4sXqZ5J7EIVhpMU7jUiGOqz7mRcEt2S4H1RHATSGhQApxfsZ3Q48BY61BG8zTKOQArCjUl8ZnLTfAUvjCJyQCOQHKOrgdcySIuv1O0vPwy8nvnqVVWcEby44ZCDCqMK3t0eEx+eO0A3tgO2yoLolgTvgb748CTlh/sKfWd3vL72qjbIrUbomXyHOoK31O82aVu+lU/B64Pp1cEL1lihI30XghdlGArwBl6SagpeJymMvDCdn+Xbd07GdhPsptjvkuAFt/s9zzoZAAhqx/e8At5ChxYEb5iwIZhebuSFPsQzZpuwiRb3yyZsBqD8rz7rITMZeTl2ocExlRTggFcu/tND7mRs1KE6PVkUvGe8GziMMPfVxqu7VxsKHVoQvNGMQ2ED5D6ZfFmer9RU9s3R1Sng2TbywtgosQtNXE5SAl58worHqyePZD+kWhr1qsB7ujyfbPVX8PIQVZ2wEXgzHVoQvBgcYjA98PFIdHQGLyJuPV+3FwzwwjtWLK675x8O3jAFoyfe4OgkJeCFXkGaZCpjo14VePFyEFs1gxdD1ON2o8XY5GErdkhB4/sjo2CaVup3SkPn9ZJCYeU1nydstnQpq7+01hfvhrzJNKqeRFvDV2Jw3PcbeEkOErvQxCpfPkAqDbN6r6F1QR1LAxYGarkn4f+iagOUQvn4AEMDTyGO3Rk7JI/h0Sx2CF2tA66eUup3EICe1EtWKdx1EkyPtt24PL6gXSWi6+ISe094F0+dLEn5MGtDsxmnhzidpBJ5cEDDIMI0I5wvBN7QvjvBTaZtOefyrW4BTV1mzTv3Yuv1kjFvnrMPA2/zqDCPOFcF3rdRMlxmw0u+zbRWsIG3tyQ38IrIoMwufNxtDar3PVykwDbyji324eMn77klnXvBY2xpTFrfBt6xxTscvDRtWPhon9ONLa536tvA+470cmWHgzdX25bWIIE28M7zBsvYeRp4Hpgljg8zdKjKX1drQ7Xcdt0igWbBznCnuYnfDd7mAaLlBm3ZmwSWlMAG3iWlv7X9lgQ28L4lvq3wkhLYwLuk9Le235LABt63xLcVXlICG3gnkn6ztWGiRv+waps3P/1hwhizu9uoMKY0t7pmlcAG3lnFvTU2pgQ28I4pza2uWSWwgXdWcW+NjSmBDbxjSnOra1YJGHgPshdPfP0plDEd5DSLQy6uEqutiZBC2+JwhLptwdfYTqiMOEJjRLjSGj2h51gIPcdaoyd0HHeWQeeuaY3CzvZ/NAncNDYFIjLQoW79EqOYPGjpkCyOxkAuqnxkCXXflgBDCXVvvq+xnVDrd4TGiHClNXpCz7EQeo61Rk/oOM52LSeDzl3baWvCz6/4//8BQ8B6NJaDGVoAAAAASUVORK5CYII=;" vertex="1" parent="WIyWlLk6GJQsqaUBKTNV-1">
          <mxGeometry x="330" y="610" width="700" height="337" as="geometry" />
        </mxCell>
        <mxCell id="DXC7QlRvag4ilJ8c1-ox-6" value="Facade" style="ellipse;whiteSpace=wrap;html=1;" vertex="1" parent="WIyWlLk6GJQsqaUBKTNV-1">
          <mxGeometry x="-20" y="110" width="120" height="30" as="geometry" />
        </mxCell>
        <mxCell id="DXC7QlRvag4ilJ8c1-ox-18" value="" style="endArrow=none;dashed=1;html=1;dashPattern=1 3;strokeWidth=2;rounded=0;entryX=0.007;entryY=0.158;entryDx=0;entryDy=0;entryPerimeter=0;" edge="1" parent="WIyWlLk6GJQsqaUBKTNV-1" target="DXC7QlRvag4ilJ8c1-ox-0">
          <mxGeometry width="50" height="50" relative="1" as="geometry">
            <mxPoint x="100" y="125" as="sourcePoint" />
            <mxPoint x="150" y="75" as="targetPoint" />
          </mxGeometry>
        </mxCell>
        <mxCell id="DXC7QlRvag4ilJ8c1-ox-20" value="&lt;&lt;interface&gt;&gt;&#xa;Product" style="swimlane;fontStyle=0;childLayout=stackLayout;horizontal=1;startSize=30;horizontalStack=0;resizeParent=1;resizeParentMax=0;resizeLast=0;collapsible=1;marginBottom=0;" vertex="1" parent="WIyWlLk6GJQsqaUBKTNV-1">
          <mxGeometry x="-160" y="250" width="140" height="120" as="geometry" />
        </mxCell>
        <mxCell id="DXC7QlRvag4ilJ8c1-ox-21" value="Item 1" style="text;strokeColor=none;fillColor=none;align=left;verticalAlign=middle;spacingLeft=4;spacingRight=4;overflow=hidden;points=[[0,0.5],[1,0.5]];portConstraint=eastwest;rotatable=0;" vertex="1" parent="DXC7QlRvag4ilJ8c1-ox-20">
          <mxGeometry y="30" width="140" height="30" as="geometry" />
        </mxCell>
        <mxCell id="DXC7QlRvag4ilJ8c1-ox-22" value="Item 2" style="text;strokeColor=none;fillColor=none;align=left;verticalAlign=middle;spacingLeft=4;spacingRight=4;overflow=hidden;points=[[0,0.5],[1,0.5]];portConstraint=eastwest;rotatable=0;" vertex="1" parent="DXC7QlRvag4ilJ8c1-ox-20">
          <mxGeometry y="60" width="140" height="30" as="geometry" />
        </mxCell>
        <mxCell id="DXC7QlRvag4ilJ8c1-ox-23" value="Item 3" style="text;strokeColor=none;fillColor=none;align=left;verticalAlign=middle;spacingLeft=4;spacingRight=4;overflow=hidden;points=[[0,0.5],[1,0.5]];portConstraint=eastwest;rotatable=0;" vertex="1" parent="DXC7QlRvag4ilJ8c1-ox-20">
          <mxGeometry y="90" width="140" height="30" as="geometry" />
        </mxCell>
        <mxCell id="DXC7QlRvag4ilJ8c1-ox-25" value="Protocol" style="swimlane;fontStyle=0;childLayout=stackLayout;horizontal=1;startSize=30;horizontalStack=0;resizeParent=1;resizeParentMax=0;resizeLast=0;collapsible=1;marginBottom=0;" vertex="1" parent="WIyWlLk6GJQsqaUBKTNV-1">
          <mxGeometry x="600" y="340" width="140" height="60" as="geometry" />
        </mxCell>
        <mxCell id="DXC7QlRvag4ilJ8c1-ox-26" value="value" style="text;strokeColor=none;fillColor=none;align=left;verticalAlign=middle;spacingLeft=4;spacingRight=4;overflow=hidden;points=[[0,0.5],[1,0.5]];portConstraint=eastwest;rotatable=0;" vertex="1" parent="DXC7QlRvag4ilJ8c1-ox-25">
          <mxGeometry y="30" width="140" height="30" as="geometry" />
        </mxCell>
        <mxCell id="DXC7QlRvag4ilJ8c1-ox-30" value="Port" style="swimlane;fontStyle=0;childLayout=stackLayout;horizontal=1;startSize=30;horizontalStack=0;resizeParent=1;resizeParentMax=0;resizeLast=0;collapsible=1;marginBottom=0;" vertex="1" parent="WIyWlLk6GJQsqaUBKTNV-1">
          <mxGeometry x="-30" y="430" width="140" height="60" as="geometry" />
        </mxCell>
        <mxCell id="DXC7QlRvag4ilJ8c1-ox-31" value="value" style="text;strokeColor=none;fillColor=none;align=left;verticalAlign=middle;spacingLeft=4;spacingRight=4;overflow=hidden;points=[[0,0.5],[1,0.5]];portConstraint=eastwest;rotatable=0;" vertex="1" parent="DXC7QlRvag4ilJ8c1-ox-30">
          <mxGeometry y="30" width="140" height="30" as="geometry" />
        </mxCell>
        <mxCell id="DXC7QlRvag4ilJ8c1-ox-37" value="&lt;table border=&quot;1&quot; width=&quot;100%&quot; cellpadding=&quot;4&quot; style=&quot;width: 100% ; height: 100% ; border-collapse: collapse&quot;&gt;&lt;tbody&gt;&lt;tr&gt;&lt;th align=&quot;center&quot;&gt;&lt;b&gt;Port&lt;/b&gt;&lt;/th&gt;&lt;/tr&gt;&lt;tr&gt;&lt;td align=&quot;center&quot;&gt;value&lt;/td&gt;&lt;/tr&gt;&lt;tr&gt;&lt;td align=&quot;center&quot;&gt;+Map()&lt;br&gt;Section 2.3&lt;/td&gt;&lt;/tr&gt;&lt;/tbody&gt;&lt;/table&gt;" style="text;html=1;strokeColor=none;fillColor=none;overflow=fill;" vertex="1" parent="WIyWlLk6GJQsqaUBKTNV-1">
          <mxGeometry x="550" y="80" width="160" height="140" as="geometry" />
        </mxCell>
        <mxCell id="DXC7QlRvag4ilJ8c1-ox-41" value="" style="endArrow=classic;html=1;rounded=0;" edge="1" parent="WIyWlLk6GJQsqaUBKTNV-1">
          <mxGeometry relative="1" as="geometry">
            <mxPoint x="430" y="390" as="sourcePoint" />
            <mxPoint x="530" y="390" as="targetPoint" />
          </mxGeometry>
        </mxCell>
        <mxCell id="DXC7QlRvag4ilJ8c1-ox-42" value="" style="shape=message;html=1;outlineConnect=0;" vertex="1" parent="DXC7QlRvag4ilJ8c1-ox-41">
          <mxGeometry width="20" height="14" relative="1" as="geometry">
            <mxPoint x="-10" y="-7" as="offset" />
          </mxGeometry>
        </mxCell>
        <mxCell id="DXC7QlRvag4ilJ8c1-ox-47" style="edgeStyle=orthogonalEdgeStyle;rounded=0;orthogonalLoop=1;jettySize=auto;html=1;exitX=0.5;exitY=0;exitDx=0;exitDy=0;" edge="1" parent="DXC7QlRvag4ilJ8c1-ox-41" source="DXC7QlRvag4ilJ8c1-ox-42">
          <mxGeometry relative="1" as="geometry">
            <mxPoint x="150" y="430" as="targetPoint" />
          </mxGeometry>
        </mxCell>
        <mxCell id="DXC7QlRvag4ilJ8c1-ox-48" value="Protocol" style="swimlane;fontStyle=0;childLayout=stackLayout;horizontal=1;startSize=30;horizontalStack=0;resizeParent=1;resizeParentMax=0;resizeLast=0;collapsible=1;marginBottom=0;" vertex="1" parent="WIyWlLk6GJQsqaUBKTNV-1">
          <mxGeometry x="170" y="430" width="140" height="60" as="geometry" />
        </mxCell>
        <mxCell id="DXC7QlRvag4ilJ8c1-ox-49" value="value" style="text;strokeColor=none;fillColor=none;align=left;verticalAlign=middle;spacingLeft=4;spacingRight=4;overflow=hidden;points=[[0,0.5],[1,0.5]];portConstraint=eastwest;rotatable=0;" vertex="1" parent="DXC7QlRvag4ilJ8c1-ox-48">
          <mxGeometry y="30" width="140" height="30" as="geometry" />
        </mxCell>
      </root>
    </mxGraphModel>
  </diagram>
</mxfile>
